<svg width="60" height="60" viewBox="0 0 60 60" fill="none" xmlns="http://www.w3.org/2000/svg">
<g clip-path="url(#clip0)">
<path d="M19.0635 23.3911C18.9035 23.0772 18.5905 22.8711 18.2395 22.8482L9.8272 22.2872C9.39127 22.2442 8.98826 22.5142 8.82924 22.9201L2.76473 38.419C2.60172 38.835 2.73473 39.3079 3.09074 39.5789C3.26875 39.7148 3.48273 39.7829 3.69566 39.7829C3.90659 39.7829 4.11765 39.7169 4.29565 39.583L9.32928 35.8083L12.2601 36.3942C12.7381 36.4893 13.216 36.2272 13.39 35.7703C14.9639 31.6476 16.8587 27.8139 19.0195 24.3772C19.2066 24.079 19.2236 23.704 19.0635 23.3911ZM11.828 34.2682L9.28228 33.7593C9.00432 33.7043 8.71428 33.7703 8.48635 33.9402L5.90755 35.874L10.4241 24.3309L16.4617 24.7329C14.7218 27.6778 13.1679 30.8754 11.828 34.2682Z" fill="#019CAD"/>
<path d="M37.713 50.174L37.152 41.7606C37.128 41.4086 36.922 41.0957 36.6081 40.9356C36.2951 40.7757 35.9201 40.7916 35.6222 40.9796C32.1844 43.1404 28.3517 45.0353 24.2291 46.6091C23.7731 46.7821 23.5091 47.2601 23.6052 47.739L24.1911 50.6698L20.4164 55.7024C20.1484 56.0604 20.1495 56.5524 20.4204 56.9084C20.6134 57.1623 20.9104 57.3033 21.2163 57.3033C21.3383 57.3033 21.4614 57.2803 21.5813 57.2363L37.0801 51.1717C37.486 51.013 37.742 50.6089 37.713 50.174ZM24.125 54.0907L26.0588 51.5119C26.2289 51.2849 26.2948 50.995 26.2388 50.716L25.7299 48.1712C29.1236 46.8313 32.3203 45.2774 35.2651 43.5375L35.6681 49.574L24.125 54.0907Z" fill="#019CAD"/>
<path d="M28.9978 30.0006H22.2603C21.8974 30.0006 21.5634 30.1976 21.3863 30.5146L12.9299 45.7094C12.71 46.1054 12.7839 46.6013 13.1099 46.9154C13.301 47.0994 13.5519 47.1954 13.8039 47.1954C13.9819 47.1954 14.1609 47.1484 14.3208 47.0504L29.5157 37.8551C29.8146 37.6742 29.9977 37.3502 29.9977 37.0003V31.0006C29.9978 30.4486 29.5498 30.0006 28.9978 30.0006ZM27.998 36.4372L16.5099 43.3896L22.8474 32.0015V32.0004H27.998V36.4372Z" fill="#019CAD"/>
<path d="M59.9496 0.96377C59.9086 0.476861 59.5227 0.0908489 59.0356 0.0498337C58.7037 0.0238183 25.7752 -2.27503 11.5223 35.0562C11.3813 35.4252 11.4703 35.8411 11.7493 36.1201L16.5039 40.8747C16.7269 41.0977 17.0389 41.1997 17.3519 41.1578C17.6629 41.1128 17.9349 40.9248 18.0869 40.6497L22.8505 32.0005H27.9981V36.4491L19.2968 41.9427C19.0398 42.1057 18.8708 42.3757 18.8369 42.6777C18.8029 42.9796 18.9088 43.2806 19.1239 43.4956L23.8785 48.2502C24.0695 48.4412 24.3245 48.5432 24.5854 48.5432C24.7054 48.5432 24.8264 48.5222 24.9424 48.4772C62.2754 34.2232 59.9776 1.29482 59.9496 0.96377ZM54.704 18.7045C51.1952 27.3858 43.1658 39.188 24.8322 46.3764L21.4225 42.9666L29.5319 37.847C29.8218 37.663 29.9978 37.344 29.9978 37.001V31.0014C29.9978 30.4495 29.5498 30.0015 28.9979 30.0015H22.2584C21.8934 30.0015 21.5584 30.2005 21.3824 30.5195L16.9757 38.5208L13.623 35.1671C26.1351 3.24761 52.8051 1.94169 57.9896 2.0147C58.0267 4.34659 57.8127 11.012 54.704 18.7045Z" fill="#019CAD"/>
<path d="M17.1287 44.1645C16.9116 43.8766 16.5657 43.7366 16.2267 43.7725C16.2617 43.4326 16.1217 43.0876 15.8347 42.8706C14.3269 41.7307 12.381 41.3517 10.4942 41.8296C8.49133 42.3385 6.85342 43.7044 6.00147 45.5793L0.0900048 58.5853C-0.0829623 58.9653 -0.00198652 59.4123 0.292972 59.7062C0.483985 59.8982 0.73992 59.9992 0.999957 59.9992C1.13999 59.9992 1.28097 59.9692 1.41398 59.9092L14.42 53.9967C16.2938 53.1458 17.6598 51.5079 18.1687 49.5051C18.6476 47.6202 18.2687 45.6734 17.1287 44.1645ZM16.2308 49.0131C15.8728 50.424 14.9109 51.5769 13.593 52.1769L3.0138 56.9855L7.82243 46.4054C8.42137 45.0875 9.5753 44.1255 10.9862 43.7676C11.3572 43.6736 11.7301 43.6276 12.0981 43.6276C12.7211 43.6276 13.33 43.7606 13.8849 44.0196L12.933 45.7045C12.712 46.0954 12.7791 46.5864 13.097 46.9034C13.4149 47.2224 13.9059 47.2884 14.2959 47.0673L15.9808 46.1144C16.3907 46.9963 16.4838 48.0151 16.2308 49.0131Z" fill="#019CAD"/>
<path d="M59.9495 0.964767C59.9085 0.477857 59.5225 0.0918456 59.0356 0.0508304C58.6456 0.019776 49.3763 -0.68217 38.4751 4.3395C38.1782 4.47544 37.9671 4.74942 37.9091 5.07145C37.8511 5.39347 37.9551 5.72335 38.1861 5.95433L54.045 21.8132C54.234 22.0022 54.489 22.1061 54.7519 22.1061C54.8109 22.1061 54.87 22.1011 54.9289 22.0911C55.2509 22.0331 55.5239 21.8222 55.6608 21.5251C60.6835 10.624 59.9815 1.35371 59.9495 0.964767ZM54.4279 19.3663L40.633 5.57136C48.6134 2.20261 55.6018 1.97058 57.9906 2.01065C58.0306 4.40149 57.8056 11.368 54.4279 19.3663Z" fill="#019CAD"/>
<path d="M44.1605 15.8387C40.7977 12.476 35.3272 12.476 31.9645 15.8387C28.6017 19.2015 28.6017 24.672 31.9645 28.0348C33.6454 29.7166 35.8542 30.5566 38.062 30.5566C40.2709 30.5566 42.4787 29.7157 44.1605 28.0348C47.5233 24.672 47.5233 19.2014 44.1605 15.8387ZM42.7467 26.6208C40.1639 29.2036 35.9612 29.2036 33.3784 26.6208C30.7957 24.038 30.7957 19.8354 33.3784 17.2526C34.6694 15.9617 36.3662 15.3157 38.0621 15.3157C39.7581 15.3157 41.4549 15.9617 42.7468 17.2526C45.3295 19.8354 45.3295 24.038 42.7467 26.6208Z" fill="#019CAD"/>
<path d="M40.05 23.925C38.954 25.0229 37.1702 25.0219 36.0732 23.925C34.9773 22.8281 34.9773 21.0453 36.0732 19.9483C37.1692 18.8523 38.953 18.8514 40.05 19.9483C40.44 20.3392 41.0739 20.3392 41.4638 19.9483C41.8547 19.5573 41.8547 18.9253 41.4638 18.5344C39.5889 16.6586 36.5352 16.6586 34.6594 18.5344C32.7835 20.4102 32.7835 23.463 34.6594 25.3388C35.5973 26.2768 36.8303 26.7458 38.0621 26.7458C39.295 26.7458 40.5269 26.2768 41.4638 25.3388C41.8547 24.9479 41.8547 24.3159 41.4638 23.925C41.0738 23.5341 40.44 23.5341 40.05 23.925Z" fill="#019CAD"/>
</g>
<defs>
<clipPath id="clip0">
<rect width="60" height="60" fill="white"/>
</clipPath>
</defs>
</svg>
